<?xml version="1.0" encoding="UTF-8"?>
<svg id="Layer_1" data-name="Layer 1" xmlns="http://www.w3.org/2000/svg" viewBox="0 0 931.5 621.52">
  <defs>
    <style>
      .cls-1 { fill: #282525; }
    </style>
  </defs>
  <path class="cls-1" d="M202.14,429.28h189.3v29.74h-44.39c-3.6,0-6.88,2.03-8.5,5.26-1.6,3.21-1.26,7.06.9,9.95l80.76,107.58c1.8,2.39,4.61,3.79,7.6,3.79s5.81-1.4,7.6-3.79l80.76-107.58c2.16-2.88,2.51-6.74.9-9.95-1.6-3.23-4.9-5.26-8.5-5.26h-41.95v-29.74h184.89c3.38,0,6.5-1.79,8.2-4.7,11.15-19.04,15.96-63.34,15.96-81.75,0-64.45-52.43-116.88-116.89-116.88-7.44,0-14.89.71-22.22,2.12-26.88-33.08-67.69-52.66-110.44-52.66-59.76,0-112.01,36.41-132.87,91.57-7.64-2.09-15.52-3.13-23.52-3.13-49.52,0-89.81,40.29-89.81,89.81,0,13.98,4.22,55.71,14.2,71.25,1.75,2.72,4.76,4.37,8,4.37ZM295.74,287.8c2.47.97,5.24.87,7.62-.28,2.39-1.16,4.19-3.26,4.96-5.79,15.87-52.23,63.22-87.31,117.83-87.31,39.4,0,75.48,18.18,98.99,49.88,2.29,3.09,6.21,4.49,9.92,3.56,7.78-1.93,15.77-2.91,23.74-2.91,53.97,0,97.89,43.91,97.89,97.88,0,17.88-4.55,51.29-11.1,67.44h-178.95v-70.48c0-5.25-4.26-9.51-9.49-9.51h-56.19c-5.25,0-9.51,4.26-9.51,9.51v70.48h-183.43c-5.15-13.08-9.05-41.45-9.05-56.61,0-39.05,31.76-70.81,70.8-70.81,8.94,0,17.68,1.66,25.99,4.94ZM457.13,478.03h32.42l-61.74,82.25-61.74-82.25h34.87c5.24,0,9.5-4.25,9.5-9.5v-119.22h37.18v119.22c0,5.25,4.26,9.5,9.51,9.5Z"/>
</svg>