<?xml version="1.0" encoding="UTF-8"?>
<svg id="Layer_1" data-name="Layer 1" xmlns="http://www.w3.org/2000/svg" viewBox="0 0 495.74 482.02">
  <defs>
    <style>
      .cls-1 {
        fill: #282525;
      }
    </style>
  </defs>
  <path class="cls-1" d="M347.32,203.19H116.19c-9.25,0-9.26,14.37,0,14.37h231.13c9.25,0,9.26-14.37,0-14.37Z"/>
  <path class="cls-1" d="M347.32,268.73H116.19c-9.25,0-9.26,14.37,0,14.37h231.13c9.25,0,9.26-14.37,0-14.37Z"/>
  <path class="cls-1" d="M347.32,334.26H116.19c-9.25,0-9.26,14.37,0,14.37h231.13c9.25,0,9.26-14.37,0-14.37Z"/>
  <path class="cls-1" d="M347.32,399.8H116.19c-9.25,0-9.26,14.37,0,14.37h231.13c9.25,0,9.26-14.37,0-14.37Z"/>
  <path class="cls-1" d="M140.59,144.84c0-10.18-8.28-18.46-18.46-18.46s-18.46,8.28-18.46,18.46,8.28,18.45,18.46,18.45,18.46-8.28,18.46-18.45ZM111.35,144.84c0-5.95,4.84-10.79,10.79-10.79s10.79,4.84,10.79,10.79-4.84,10.79-10.79,10.79-10.79-4.84-10.79-10.79Z"/>
  <path class="cls-1" d="M176.94,163.29c10.18,0,18.46-8.28,18.46-18.45s-8.28-18.46-18.46-18.46-18.46,8.28-18.46,18.46,8.28,18.45,18.46,18.45ZM176.94,134.05c5.95,0,10.79,4.84,10.79,10.79s-4.84,10.79-10.79,10.79-10.79-4.84-10.79-10.79,4.84-10.79,10.79-10.79Z"/>
  <path class="cls-1" d="M231.75,163.29c10.17,0,18.46-8.28,18.46-18.45s-8.28-18.46-18.46-18.46-18.45,8.28-18.45,18.46,8.28,18.45,18.45,18.45ZM231.75,134.05c5.95,0,10.79,4.84,10.79,10.79s-4.84,10.79-10.79,10.79-10.78-4.84-10.78-10.79,4.84-10.79,10.78-10.79Z"/>
  <path class="cls-1" d="M286.57,163.29c10.18,0,18.46-8.28,18.46-18.45s-8.28-18.46-18.46-18.46-18.45,8.28-18.45,18.46,8.28,18.45,18.45,18.45ZM286.57,134.05c5.95,0,10.79,4.84,10.79,10.79s-4.84,10.79-10.79,10.79-10.79-4.84-10.79-10.79,4.84-10.79,10.79-10.79Z"/>
  <path class="cls-1" d="M322.93,144.84c0,10.17,8.28,18.45,18.46,18.45s18.45-8.28,18.45-18.45-8.28-18.46-18.45-18.46-18.46,8.28-18.46,18.46ZM341.38,134.05c5.94,0,10.79,4.84,10.79,10.79s-4.84,10.79-10.79,10.79-10.79-4.84-10.79-10.79,4.84-10.79,10.79-10.79Z"/>
  <path class="cls-1" d="M424.52,120.11c-3.38.07-7.63.02-12.44-.3v-43.58h-48.15c8.82-7.96,13.87-19.63,13.98-29.97.15-14.5-8.57-25.34-23.33-29-10.81-2.68-20.38-1.14-27.67,4.46-7.28,5.59-12.2,15.15-14.05,26.96-.06-.1-.12-.2-.19-.3-5.86-9.83-3.96-19.93-.87-32.12,1.74-6.88-2.91-12-8.17-13.34-5.22-1.31-11.41.87-13.12,7.64-4.19,16.52-7.06,37.81,8.06,55.82,3.12,3.72,6.81,7.03,10.88,9.85H60.38v403.23h351.7V141.91c3.06.17,6.15.27,9.29.27,1.09,0,2.2-.01,3.3-.03,7.09-.13,10.79-5.97,10.7-11.39-.11-5.39-3.89-10.64-10.85-10.64ZM400.58,87.73v30.82c-19.14-2.9-42.32-10.82-56.77-30.82h56.77ZM400.58,467.96H71.87V87.73h246.13c14.3,29.14,44.33,48.06,82.58,53.07v327.16ZM424.52,134.49c-46.59.95-83.9-17.9-99.7-50.25-1.17-2.39-2.18-5.16-3-8.23l-.44-1.67-1.54-.77c-5.91-2.97-11.25-7.16-15.4-12.12-12.8-15.26-10.47-33.34-6.5-49.01.46-1.82,1.7-2.23,2.72-2.23.43,0,.82.08,1.09.14.57.15,3.38,1.02,2.62,4.03-3.41,13.45-5.63,25.59,1.72,37.92,1.83,3.06,4.25,5.99,7.2,8.7l6.26,5.75.17-8.5c.26-13.78,4.58-24.88,11.86-30.45,5.46-4.2,12.58-5.22,21.16-3.11,15.39,3.81,17.58,15.1,17.52,21.48-.13,12.65-9.28,27.78-24.36,31.2-3.15.71-6.52.95-10.01.71l-6.88-.47,3.23,6.09c21.66,40.94,71.85,44.41,92.45,44.06h.09c2.59,0,2.92,2.18,2.95,3.13,0,.59-.1,3.52-3.18,3.58Z"/>
  <path class="cls-1" d="M353,67.36c12.73-8.38,11.78-17.67,10.79-21.28-2.06-7.43-9.64-13.07-18.02-13.42-8.66-.39-15.9,4.98-19.34,14.3-2.18,5.89-2.38,12.7-.61,20.24l.49,2.09,2.05.67c3.41,1.12,6.8,1.67,10.07,1.67,5.28,0,10.26-1.44,14.57-4.27ZM332.83,63.27c-.94-5.2-.68-9.69.79-13.67,2.29-6.21,6.46-9.55,11.82-9.29,4.99.21,9.8,3.64,10.96,7.81,1.18,4.26-1.52,8.81-7.62,12.82-5.52,3.63-11.42,3.43-15.96,2.32Z"/>
</svg>